{"title":"Kill.Kane.2016.WEB-DL.XviD.AC3-FGT","uid":13246458,"size":1248938257,"categoryP":"video","categoryS":"movies","magnet":"?xt=urn:btih:0b19e687d50056fc0947988857d68fefb0ee08c5&amp;dn=Kill.Kane.2016.WEB-DL.XviD.AC3-FGT&amp;tr=udp%3A%2F%2Ftracker.leechers-paradise.org%3A6969&amp;tr=udp%3A%2F%2Fzer0day.ch%3A1337&amp;tr=udp%3A%2F%2Fopen.demonii.com%3A1337&amp;tr=udp%3A%2F%2Ftracker.coppersurfer.tk%3A6969&amp;tr=udp%3A%2F%2Fexodus.desync.com%3A6969","seeders":0,"leechers":0,"uploader":"TheRival","files":3,"time":1453114696,"description":"Screens: \nhttp://extraimago.com/image/tpj \nhttp://extraimago.com/image/tpn \nhttp://extraimago.com/image/tps \nhttp://extraimago.com/image/tp7 \nhttp://extraimago.com/image/tpc \nhttp://extraimago.com/image/tp1\r\n\r\nVideo\r\nID                                       : 0\r\nFormat                                   : MPEG-4 Visual\r\nFormat profile                           :   \r\nFormat settings, BVOP                    : No\r\nFormat settings, QPel                    : No\r\nFormat settings, GMC                     : No warppoints\r\nFormat settings, Matrix                  : Default (H.263)\r\nCodec ID                                 : XVID\r\nCodec ID/Hint                            : XviD\r\nDuration                                 : 1h 14mn\r\nBit rate                                 : 1 846 Kbps\r\nWidth                                    : 720 pixels\r\nHeight                                   : 304 pixels\r\nDisplay aspect ratio                     : 2.40:1\r\nFrame rate                               : 25.000 fps\r\nColor space                              : YUV\r\nChroma subsampling                       : 4:2:0\r\nBit depth                                : 8 bits\r\nScan type                                : Progressive\r\nCompression mode                         : Lossy\r\nBits/(Pixel*Frame)                       : 0.337\r\nStream size                              : 982 MiB (82%)\r\nWriting library                          : Lavc56.13.100\r\n\r\nAudio\r\nID                                       : 1\r\nFormat                                   : AC-3\r\nFormat/Info                              : Audio Coding 3\r\nMode extension                           : CM (complete main)\r\nFormat settings, Endianness              : Big\r\nCodec ID                                 : 2000\r\nDuration                                 : 1h 14mn\r\nBit rate mode                            : Constant\r\nBit rate                                 : 384 Kbps\r\nChannel(s)                               : 6 channels\r\nChannel positions                        : Front: L C R, Side: L R, LFE\r\nSampling rate                            : 48.0 KHz\r\nFrame rate                               : 31.250 fps (1536 spf)\r\nCompression mode                         : Lossy\r\nStream size                              : 204 MiB (17%)\r\nAlignment                                : Aligned on interleaves\r\nInterleave, duration                     : 40 ms (1.00 video frame)\r\nInterleave, preload duration             : 512 ms","torrent":{"xt":"urn:btih:0b19e687d50056fc0947988857d68fefb0ee08c5","amp;dn":"Kill.Kane.2016.WEB-DL.XviD.AC3-FGT","amp;tr":["udp%3A%2F%2Ftracker.leechers-paradise.org%3A6969","udp%3A%2F%2Fzer0day.ch%3A1337","udp%3A%2F%2Fopen.demonii.com%3A1337","udp%3A%2F%2Ftracker.coppersurfer.tk%3A6969","udp%3A%2F%2Fexodus.desync.com%3A6969"],"infoHash":"0b19e687d50056fc0947988857d68fefb0ee08c5","infoHashBuffer":{"type":"Buffer","data":[11,25,230,135,213,0,86,252,9,71,152,136,87,214,143,239,176,238,8,197]},"announce":[],"urlList":[]}}